<svg width="1600" height="1100" viewBox="0 0 1600 1100" fill="none" xmlns="http://www.w3.org/2000/svg">
  <rect width="1600" height="1100" fill="#F8F3EC"/>
  <rect x="70" y="70" width="1460" height="960" rx="60" fill="url(#bg)"/>
  <circle cx="1260" cy="240" r="210" fill="#E7D6C3"/>
  <circle cx="320" cy="860" r="220" fill="#D7C1AF"/>
  <rect x="250" y="220" width="470" height="620" rx="240" fill="#FFFDF8"/>
  <rect x="860" y="270" width="430" height="540" rx="215" fill="#EBDCCF"/>
  <path d="M375 680C430 555 513 463 626 404C676 378 722 361 760 352C729 430 683 511 633 595C585 676 517 761 431 848L375 680Z" fill="#B8795F"/>
  <path d="M1000 765C1053 689 1094 611 1120 533C1147 452 1160 392 1160 352C1228 422 1278 503 1308 596C1336 683 1346 772 1336 864L1000 765Z" fill="#7E8768"/>
  <rect x="640" y="710" width="330" height="140" rx="70" fill="#FFF4EA" fill-opacity="0.86"/>
  <path d="M706 780C752 740 795 720 834 720C873 720 913 737 954 772" stroke="#B8795F" stroke-width="20" stroke-linecap="round"/>
  <path d="M822 398C856 447 910 482 984 505" stroke="#7E8768" stroke-width="18" stroke-linecap="round"/>
  <defs>
    <linearGradient id="bg" x1="210" y1="170" x2="1380" y2="970" gradientUnits="userSpaceOnUse">
      <stop stop-color="#FFFDF8"/>
      <stop offset="1" stop-color="#F0E4D6"/>
    </linearGradient>
  </defs>
</svg>
