<svg width="1200" height="900" viewBox="0 0 1200 900" fill="none" xmlns="http://www.w3.org/2000/svg">
  <rect width="1200" height="900" fill="#F6EEE4"/>
  <rect x="90" y="90" width="1020" height="720" rx="48" fill="#FFFDF8"/>
  <circle cx="620" cy="370" r="170" fill="#E7D6C3"/>
  <path d="M517 377C517 322 561 278 616 278C671 278 715 322 715 377V445C715 500 671 544 616 544C561 544 517 500 517 445V377Z" fill="#F4D8C8"/>
  <path d="M535 330C565 291 607 272 659 272C694 272 727 282 756 303" stroke="#B8795F" stroke-width="18" stroke-linecap="round"/>
  <path d="M558 630C615 585 672 585 730 630" stroke="#7E8768" stroke-width="16" stroke-linecap="round"/>
  <circle cx="540" cy="442" r="12" fill="#7E8768"/>
  <circle cx="692" cy="442" r="12" fill="#7E8768"/>
  <path d="M598 496C610 510 626 517 646 517C666 517 683 509 696 493" stroke="#B8795F" stroke-width="10" stroke-linecap="round"/>
  <rect x="228" y="586" width="180" height="110" rx="32" fill="#E7D6C3"/>
  <rect x="800" y="576" width="166" height="126" rx="34" fill="#D7DFCF"/>
</svg>
