<svg width="1200" height="900" viewBox="0 0 1200 900" fill="none" xmlns="http://www.w3.org/2000/svg">
  <rect width="1200" height="900" fill="#F4EBE0"/>
  <rect x="86" y="86" width="1028" height="728" rx="48" fill="#FFFDF8"/>
  <rect x="250" y="470" width="540" height="150" rx="75" fill="#E7D6C3"/>
  <rect x="704" y="448" width="128" height="202" rx="60" fill="#D4C0AE"/>
  <circle cx="375" cy="410" r="75" fill="#F0D5C4"/>
  <path d="M470 440C571 384 653 389 716 454" stroke="#B8795F" stroke-width="20" stroke-linecap="round"/>
  <path d="M402 351C452 322 509 316 574 334" stroke="#7E8768" stroke-width="16" stroke-linecap="round"/>
  <path d="M290 294C314 266 343 251 376 248" stroke="#B8795F" stroke-opacity="0.75" stroke-width="10" stroke-linecap="round"/>
  <path d="M836 300C858 261 892 231 938 212C924 285 894 344 848 391" fill="#7E8768"/>
  <circle cx="906" cy="266" r="90" fill="#E7D6C3"/>
</svg>
