<svg width="1200" height="900" viewBox="0 0 1200 900" fill="none" xmlns="http://www.w3.org/2000/svg">
  <rect width="1200" height="900" fill="#F4EDE4"/>
  <rect x="90" y="90" width="1020" height="720" rx="48" fill="#FFFDF8"/>
  <circle cx="816" cy="248" r="118" fill="#DDE2D1"/>
  <circle cx="544" cy="270" r="62" fill="#B8795F"/>
  <path d="M476 388C533 354 589 337 644 337C709 337 768 361 821 410" stroke="#7E8768" stroke-width="18" stroke-linecap="round"/>
  <path d="M532 355C491 427 473 490 478 544C482 602 505 662 548 724" stroke="#D2B39F" stroke-width="58" stroke-linecap="round"/>
  <path d="M666 384C622 457 603 524 610 585C617 650 647 701 700 740" stroke="#B8795F" stroke-width="58" stroke-linecap="round"/>
  <path d="M378 662C479 622 582 613 687 634" stroke="#7E8768" stroke-width="14" stroke-linecap="round"/>
</svg>
